<svg id="spain" width="24" height="24" viewBox="0 0 24 24" fill="none" xmlns="http://www.w3.org/2000/svg">
    <path d="M0.413812 18.8621H23.5862C23.8147 18.8621 24 18.6768 24 18.4483V3.55175C24 3.32324 23.8147 3.13794 23.5862 3.13794H0.413812C0.185297 3.13799 0 3.32324 0 3.55175V18.4483C0 18.6768 0.185297 18.8621 0.413812 18.8621Z" fill="#C8414B"/>
    <path d="M24 6.44849H0V15.5521H24V6.44849Z" fill="#FFD250"/>
    <path d="M10.1377 11L10.4886 9.42125C10.5209 9.27585 10.4103 9.13794 10.2613 9.13794H10.0142C9.86524 9.13794 9.75462 9.27585 9.78687 9.42125L10.1377 11Z" fill="#C8414B"/>
    <path d="M10.5512 10.1721H9.72363V13.6891H10.5512V10.1721Z" fill="#F5F5F5"/>
    <path d="M10.758 9.75879H9.5166V10.1726H10.758V9.75879Z" fill="#FAB446"/>
    <path d="M10.7595 11.0001H8.69043V11.4139H10.7595V11.0001Z" fill="#C8414B"/>
    <path d="M10.759 12.6552L9.51758 12.2414V11.8276L10.759 12.2414V12.6552Z" fill="#C8414B"/>
    <path d="M3.93168 11L4.28253 9.42125C4.31488 9.27585 4.20421 9.13794 4.05524 9.13794H3.80811C3.65919 9.13794 3.54857 9.27585 3.58082 9.42125L3.93168 11Z" fill="#C8414B"/>
    <path d="M5.37963 9.75854C5.15112 9.75854 4.96582 9.94384 4.96582 10.1724V12.862C4.96582 13.3647 5.43504 14.3103 7.03479 14.3103C8.63453 14.3103 9.10375 13.3648 9.10375 12.862V10.1724C9.10375 9.94384 8.91845 9.75854 8.68994 9.75854H5.37963Z" fill="#F5F5F5"/>
    <path d="M7.03479 11.8275H4.96582V10.1724C4.96582 9.94384 5.15112 9.75854 5.37963 9.75854H7.03479V11.8275Z" fill="#C8414B"/>
    <path d="M7.03516 11.8275H9.10412V12.862C9.10412 13.4334 8.641 13.8965 8.06964 13.8965C7.49828 13.8965 7.03516 13.4334 7.03516 12.862V11.8275Z" fill="#C8414B"/>
    <path d="M4.96582 11.8276H7.03479V12.8621C7.03479 13.4335 6.57166 13.8966 6.0003 13.8966C5.42894 13.8966 4.96582 13.4335 4.96582 12.8621V11.8276Z" fill="#FAB446"/>
    <path d="M6.62084 13.6851V11.8276H6.20703V13.8757C6.36097 13.8445 6.50005 13.7764 6.62084 13.6851Z" fill="#C8414B"/>
    <path d="M5.79369 13.8757V11.8276H5.37988V13.6851C5.50073 13.7764 5.6398 13.8445 5.79369 13.8757Z" fill="#C8414B"/>
    <path d="M6.62126 11H5.37988V11.4138H6.62126V11Z" fill="#FFB441"/>
    <path d="M6.62126 10.1721H5.37988V10.5859H6.62126V10.1721Z" fill="#FAB446"/>
    <path d="M6.41449 10.4182H5.58691V11.1678H6.41449V10.4182Z" fill="#FAB446"/>
    <path d="M4.34418 10.1721H3.5166V13.6891H4.34418V10.1721Z" fill="#F5F5F5"/>
    <path d="M4.55193 13.483H3.31055V13.8968H4.55193V13.483Z" fill="#FAB446"/>
    <path d="M4.55193 9.75879H3.31055V10.1726H4.55193V9.75879Z" fill="#FAB446"/>
    <path d="M4.75867 13.8964H3.10352V14.3102H4.75867V13.8964Z" fill="#5064AA"/>
    <path d="M10.965 13.483H9.72363V13.8968H10.965V13.483Z" fill="#FAB446"/>
    <path d="M10.9657 13.8964H9.31055V14.3102H10.9657V13.8964Z" fill="#5064AA"/>
    <path d="M8.27574 9.34485H5.79297V9.75866H8.27574V9.34485Z" fill="#FAB446"/>
    <path d="M7.24194 8.10364H6.82812V9.34503H7.24194V8.10364Z" fill="#FFB441"/>
    <path d="M6.62067 8.72413C6.27839 8.72413 6 8.44569 6 8.10346C6 7.76118 6.27844 7.48279 6.62067 7.48279C6.96295 7.48279 7.24134 7.76122 7.24134 8.10346C7.24139 8.44569 6.96295 8.72413 6.62067 8.72413ZM6.62067 7.89655C6.50653 7.89655 6.41376 7.98927 6.41376 8.10346C6.41376 8.2176 6.50648 8.31036 6.62067 8.31036C6.73486 8.31036 6.82758 8.21765 6.82758 8.10346C6.82758 7.98932 6.73486 7.89655 6.62067 7.89655Z" fill="#F5F5F5"/>
    <path d="M7.4488 8.72413C7.10651 8.72413 6.82812 8.44569 6.82812 8.10346C6.82812 7.76118 7.10656 7.48279 7.4488 7.48279C7.79108 7.48279 8.06947 7.76122 8.06947 8.10346C8.06947 8.44569 7.79103 8.72413 7.4488 8.72413ZM7.4488 7.89655C7.33465 7.89655 7.24189 7.98927 7.24189 8.10346C7.24189 8.2176 7.33461 8.31036 7.4488 8.31036C7.56294 8.31036 7.6557 8.21765 7.6557 8.10346C7.65565 7.98932 7.56294 7.89655 7.4488 7.89655Z" fill="#F5F5F5"/>
    <path d="M8.27692 9.13795C7.93464 9.13795 7.65625 8.85951 7.65625 8.51728C7.65625 8.175 7.93469 7.89661 8.27692 7.89661C8.6192 7.89661 8.89759 8.17504 8.89759 8.51728C8.89759 8.85951 8.61915 9.13795 8.27692 9.13795ZM8.27692 8.31037C8.16278 8.31037 8.07001 8.40309 8.07001 8.51728C8.07001 8.63142 8.16273 8.72418 8.27692 8.72418C8.39106 8.72418 8.48383 8.63146 8.48383 8.51728C8.48383 8.40309 8.39106 8.31037 8.27692 8.31037Z" fill="#F5F5F5"/>
    <path d="M5.79352 9.13795C5.45124 9.13795 5.17285 8.85951 5.17285 8.51728C5.17285 8.175 5.45129 7.89661 5.79352 7.89661C6.1358 7.89661 6.41419 8.17504 6.41419 8.51728C6.41424 8.85951 6.1358 9.13795 5.79352 9.13795ZM5.79352 8.31037C5.67938 8.31037 5.58662 8.40309 5.58662 8.51728C5.58662 8.63142 5.67933 8.72418 5.79352 8.72418C5.90771 8.72418 6.00043 8.63142 6.00043 8.51723C6.00043 8.40309 5.90771 8.31037 5.79352 8.31037Z" fill="#F5F5F5"/>
    <path d="M8.27587 12.6552V12.8621C8.27587 12.9762 8.18305 13.069 8.06896 13.069C7.95487 13.069 7.86205 12.9762 7.86205 12.8621V12.6552H8.27587ZM8.68963 12.2415H7.44824V12.8621C7.44824 13.2044 7.72668 13.4828 8.06891 13.4828C8.41119 13.4828 8.68958 13.2044 8.68958 12.8621V12.2415H8.68963Z" fill="#FAB446"/>
    <path d="M8.06909 11.4139C7.84057 11.4139 7.65527 11.2286 7.65527 11.0001V10.5863C7.65527 10.3578 7.84057 10.1725 8.06909 10.1725C8.2976 10.1725 8.4829 10.3578 8.4829 10.5863V11.0001C8.4829 11.2286 8.2976 11.4139 8.06909 11.4139Z" fill="#FFA0D2"/>
    <path d="M7.03473 12.448C7.37752 12.448 7.65541 12.1701 7.65541 11.8273C7.65541 11.4845 7.37752 11.2067 7.03473 11.2067C6.69195 11.2067 6.41406 11.4845 6.41406 11.8273C6.41406 12.1701 6.69195 12.448 7.03473 12.448Z" fill="#5064AA"/>
    <path d="M7.24194 7.27576H6.82812V8.51715H7.24194V7.27576Z" fill="#FAB446"/>
    <path d="M5.7937 9.3449L5.37988 8.93109L5.62227 8.6887C5.99695 8.31403 6.50516 8.10352 7.03509 8.10352C7.56501 8.10352 8.07318 8.31403 8.4479 8.6887L8.69029 8.93109L8.27648 9.3449H5.7937Z" fill="#C8414B"/>
    <path d="M7.03503 9.13781C7.1493 9.13781 7.24194 9.04518 7.24194 8.9309C7.24194 8.81663 7.1493 8.724 7.03503 8.724C6.92076 8.724 6.82812 8.81663 6.82812 8.9309C6.82812 9.04518 6.92076 9.13781 7.03503 9.13781Z" fill="#FFD250"/>
    <path d="M6.20691 9.13781C6.32118 9.13781 6.41381 9.04518 6.41381 8.9309C6.41381 8.81663 6.32118 8.724 6.20691 8.724C6.09263 8.724 6 8.81663 6 8.9309C6 9.04518 6.09263 9.13781 6.20691 9.13781Z" fill="#FFD250"/>
    <path d="M7.86218 9.13781C7.97645 9.13781 8.06909 9.04518 8.06909 8.9309C8.06909 8.81663 7.97645 8.724 7.86218 8.724C7.74791 8.724 7.65527 8.81663 7.65527 8.9309C7.65527 9.04518 7.74791 9.13781 7.86218 9.13781Z" fill="#FFD250"/>
    <path d="M5.37961 11H3.31055V11.4138H5.37961V11Z" fill="#C8414B"/>
    <path d="M3.31055 12.6551L4.55189 12.2413V11.8275L3.31055 12.2413V12.6551Z" fill="#C8414B"/>
</svg>
