<svg id="english" width="24" height="24" viewBox="0 0 24 24" fill="none" xmlns="http://www.w3.org/2000/svg">
    <path d="M23.5861 19.862H0.413811C0.185296 19.862 0 19.6768 0 19.4482V4.55175C0 4.32324 0.185296 4.13794 0.413811 4.13794H23.5861C23.8147 4.13794 24 4.32324 24 4.55175V19.4482C23.9999 19.6768 23.8146 19.862 23.5861 19.862Z" fill="#41479B"/>
    <path d="M23.9999 4.55175C23.9999 4.32324 23.8146 4.13794 23.5861 4.13794H21.7348L14.0689 9.16043V4.13794H9.93095V9.16043L2.26508 4.13794H0.413811C0.185296 4.13794 0 4.32324 0 4.55175V5.62195L6.57696 9.93101H0V14.0689H6.57696L0 18.378V19.4482C0 19.6768 0.185296 19.862 0.413811 19.862H2.26513L9.93104 14.8396V19.862H14.069V14.8396L21.7349 19.862H23.5862C23.8147 19.862 24 19.6768 24 19.4482V18.378L17.423 14.069H23.9999V9.93106H17.4229L23.9999 5.62195V4.55175Z" fill="#F5F5F5"/>
    <path d="M23.9999 10.7586H13.2413V4.13794H10.7586V10.7586H0V13.2414H10.7586V19.862H13.2413V13.2414H23.9999V10.7586Z" fill="#FF4B55"/>
    <path d="M8.38913 14.0691L0.0126953 19.5064C0.0419921 19.7063 0.206757 19.8622 0.414741 19.8622H0.984692L9.90919 14.0691H8.38913V14.0691Z" fill="#FF4B55"/>
    <path d="M16.2359 14.0691H14.7158L23.6273 19.8536C23.835 19.8315 23.999 19.6619 23.999 19.4483V19.1081L16.2359 14.0691Z" fill="#FF4B55"/>
    <path d="M0 5.00871L7.58336 9.93122H9.10342L0.241077 4.17847C0.0995152 4.24423 0 4.38556 0 4.55192V5.00871Z" fill="#FF4B55"/>
    <path d="M15.5874 9.93125L23.984 4.48079C23.9491 4.28757 23.7879 4.13818 23.5846 4.13818H22.9917L14.0674 9.93125H15.5874Z" fill="#FF4B55"/>
</svg>
