<svg xmlns="http://www.w3.org/2000/svg" width="32" height="32" viewBox="0 0 32 32">
    <g fill="none" fill-rule="evenodd">
        <path d="M0 0h280v72H0z"/>
        <path d="M0 0h32v32H0z"/>
        <g fill-rule="nonzero">
            <path fill="#FF4B55" d="M27.953 16H4V8.433c0-.232.185-.42.413-.42H27.54c.228 0 .413.188.413.42V16z"/>
            <g fill="#F5F5F5">
                <path d="M4 16h23.953v7.567c0 .232-.185.42-.413.42H4.413a.417.417 0 0 1-.413-.42V16zM7.395 12.013c0-1.383.997-2.529 2.298-2.74.07-.012.074-.111.004-.127a2.778 2.778 0 0 0-1.02-.048c-1.403.195-2.488 1.43-2.508 2.872-.022 1.646 1.281 2.987 2.89 2.987.22 0 .433-.026.637-.074.07-.017.066-.116-.004-.127-1.3-.212-2.297-1.356-2.297-2.743z"/>
                <path d="M9.714 12.752l-.122.373-.386.003c-.05 0-.071.066-.031.096l.31.234-.116.375c-.015.048.04.088.08.059l.315-.229.314.229c.04.03.095-.01.08-.06l-.117-.374.311-.234c.04-.03.02-.095-.03-.096l-.387-.003-.122-.373a.052.052 0 0 0-.099 0zM11.624 12.752l-.122.373-.386.003c-.05 0-.071.066-.03.096l.31.234-.117.375c-.015.048.04.088.08.059l.315-.229.314.229c.04.03.095-.01.08-.06l-.117-.374.311-.234c.04-.03.02-.095-.03-.096l-.387-.003-.122-.373a.052.052 0 0 0-.099 0zM10.678 9.752l-.122.373-.387.003c-.05 0-.07.065-.03.096l.31.233-.116.375c-.015.049.04.09.08.06l.314-.23.315.23c.04.03.095-.011.08-.06l-.117-.375.31-.233c.041-.03.02-.095-.03-.096l-.386-.003-.122-.373a.052.052 0 0 0-.1 0zM9.155 10.901l-.122.373-.387.004c-.05 0-.07.065-.03.095l.31.234-.116.375c-.015.048.04.089.08.059l.314-.229.315.229c.04.03.095-.01.08-.06l-.117-.374.31-.234c.041-.03.02-.095-.03-.095l-.386-.004-.122-.373a.052.052 0 0 0-.1 0zM12.188 10.901l-.122.373-.387.004c-.05 0-.07.065-.03.095l.31.234-.116.375c-.015.048.04.089.08.059l.314-.229.315.229c.04.03.095-.01.08-.06l-.117-.374.31-.234c.041-.03.02-.095-.03-.095l-.386-.004-.122-.373a.052.052 0 0 0-.1 0z"/>
            </g>
        </g>
    </g>
</svg>
