<?xml version="1.0" encoding="UTF-8"?>
<svg width="1680px" height="268px" viewBox="0 0 1680 268" version="1.1" xmlns="http://www.w3.org/2000/svg" xmlns:xlink="http://www.w3.org/1999/xlink">
    <title>Background</title>
    <defs>
        <rect id="path-1" x="0" y="0" width="1680" height="268"></rect>
        <filter id="filter-3">
            <feColorMatrix in="SourceGraphic" type="matrix" values="0 0 0 0 0.800000 0 0 0 0 0.819608 0 0 0 0 0.800000 0 0 0 1.000000 0"></feColorMatrix>
        </filter>
    </defs>
    <g id="Symbols" stroke="none" stroke-width="1" fill="none" fill-rule="evenodd">
        <g id="Background">
            <mask id="mask-2" fill="white">
                <use xlink:href="#path-1"></use>
            </mask>
            <use id="Mask" fill="#053F33" xlink:href="#path-1"></use>
            <g filter="url(#filter-3)" id="forms">
                <g mask="url(#mask-2)">
                    <g transform="translate(0.000000, -2.878187)" fill="#053F33">
                        <path d="M441.958425,132.691868 L442,92.2223 C392.639389,92.2223 351.253537,120.817868 340.067575,159.269177 C339.983785,159.550235 339.689881,159.726899 339.354081,159.726899 L308,159.726899 L308,173.252445 L336.62579,173.252445 C337.045699,173.252445 337.381499,173.549563 337.360391,173.900215 C337.192492,175.939888 337.066487,177.958146 337.066487,180.032617 C337.066487,182.069613 337.171384,184.106608 337.339284,186.092746 C337.360391,186.443399 337.045699,186.740516 336.605002,186.740516 L308,186.740516 L308,200.266062 L339.332974,200.266062 C339.668773,200.266062 339.962678,200.461464 340.046788,200.742521 C351.14864,239.279486 392.576387,267.877731 442,267.877731 L441.958425,227.212761 C410.770644,227.212761 361.306095,220.555719 361.306095,179.960345 C361.306095,139.367647 410.770644,132.691868 441.958425,132.691868 Z" id="Vector_8"></path>
                        <path d="M975.304271,179.56717 L893,221.203573 L893,262.859004 L975.304271,221.2226 L1023.9038,221.2226 C1024.3104,221.2226 1024.6528,221.491696 1024.6528,221.853208 L1024.6528,248.980203 L1041.1094,248.980203 L1041.1094,221.834181 C1041.1094,221.491696 1041.4518,221.203573 1041.8584,221.203573 L1056.83827,221.203573 C1057.245,221.203573 1057.58727,221.475387 1057.58727,221.834181 L1057.58727,248.980203 L1074.044,248.980203 L1074.044,221.834181 C1074.044,221.491696 1074.38627,221.203573 1074.793,221.203573 L1107,221.203573 L1107,179.548143 L975.304271,179.548143 L975.304271,179.56717 Z" id="Vector_9"></path>
                        <path d="M82.3042711,8.93046556 L0,50.5668693 L0,92.2223 L82.3042711,50.5858963 L130.903864,50.5858963 C131.310271,50.5858963 131.652864,50.8549917 131.652864,51.2165038 L131.652864,78.3434988 L148.1094,78.3434988 L148.1094,51.1974768 C148.1094,50.8549917 148.4518,50.5668693 148.8584,50.5668693 L163.838387,50.5668693 C164.244987,50.5668693 164.587387,50.8386829 164.587387,51.1974768 L164.587387,78.3434988 L181.044,78.3434988 L181.044,51.1974768 C181.044,50.8549917 181.3864,50.5668693 181.793,50.5668693 L214,50.5668693 L214,8.91143861 L82.3042711,8.91143861 L82.3042711,8.93046556 Z" id="Vector_10"></path>
                        <path d="M1259.66465,69.8447751 C1259.5786,70.1339074 1259.27901,70.3325684 1258.9348,70.3325684 L1219,70.3325684 L1219,84.2264917 L1254.79789,84.2264917 C1255.26959,84.2264917 1255.63292,84.6058269 1255.52775,85.0034174 L1252.07608,97.6506084 C1251.99003,97.9397407 1251.69044,98.1384018 1251.34623,98.1384018 L1219,98.1384018 L1219,112.032325 L1247.18702,112.032325 C1247.65871,112.032325 1248.02523,112.410855 1247.91687,112.808177 L1229.09684,181.555633 L1278.54842,181.555633 L1328,0.881476059 L1278.54842,0.881476059 L1259.66465,69.8447751 Z" id="Vector_11"></path>
                        <path d="M749.127232,70.4265316 L617,70.4265316 L617,113.01405 L749.127232,113.01405 C749.537536,113.01405 749.883072,113.309358 749.883072,113.660291 L749.883072,141.405821 L766.493696,141.405821 L766.493696,113.660291 C766.493696,113.309358 766.839232,113.01405 767.249536,113.01405 L782.369536,113.01405 C782.77984,113.01405 783.125696,113.309358 783.125696,113.660291 L783.125696,141.405821 L799.736,141.405821 L799.736,113.660291 C799.736,113.309358 800.081536,113.01405 800.49184,113.01405 L833,113.01405 L833,70.4265316 L800.470464,70.4265316 C800.05984,70.4265316 799.714304,70.1312242 799.714304,69.7805638 L799.714304,42.0350341 L783.104,42.0350341 L783.104,69.7805638 C783.104,70.1312242 782.758464,70.4265316 782.34784,70.4265316 L767.22784,70.4265316 C766.817536,70.4265316 766.472,70.1312242 766.472,69.7805638 L766.472,42.0350341 L749.861696,42.0350341 L749.861696,69.7805638 C749.883072,70.1312242 749.537536,70.4265316 749.127232,70.4265316 Z" id="Vector_12"></path>
                        <path d="M1431,143.413311 L1431,191.163738 C1431,191.163738 1464.96334,209.273283 1525.91996,213.952432 C1526.36829,213.992724 1526.71663,214.304309 1526.71663,214.677674 L1526.71663,238.769117 L1545.86254,238.769117 L1545.86254,215.668837 C1545.86254,215.255181 1546.26249,214.946282 1546.7592,214.946282 C1549.40079,215.008061 1552.78745,215.02955 1555.5,215.02955 C1558.66088,215.02955 1561.0767,214.986573 1564.14082,214.903304 C1564.63753,214.884502 1565.03747,215.21489 1565.03747,215.628546 L1565.03747,238.769117 L1584.18338,238.769117 L1584.18338,214.551428 C1584.18338,214.180749 1584.53495,213.869164 1584.98005,213.828873 C1645.14,209.004675 1680,191.163738 1680,191.163738 L1680,143.4348 C1680,143.4348 1641.87913,168.767211 1555.5,168.767211 C1469.12087,168.748409 1431,143.413311 1431,143.413311 Z" id="Vector_13"></path>
                    </g>
                </g>
            </g>
            <rect id="Rectangle-Copy" fill-opacity="0.500081949" fill="#053F33" mask="url(#mask-2)" x="0" y="0" width="1680" height="268"></rect>
            <rect id="Rectangle" fill-opacity="0.900513549" fill="#053F33" mask="url(#mask-2)" x="0" y="0" width="1680" height="268"></rect>
        </g>
    </g>
</svg>