<svg width="40" height="40" viewBox="0 0 40 40" fill="none" xmlns="http://www.w3.org/2000/svg">
    <rect x="0.5" y="0.5" width="39" height="39" stroke="#053F33"/>
    <path d="M16.3615 17.6645H13.497V26.6654H16.3615V17.6645ZM16.5438 14.8852C16.5352 14.0041 15.9275 13.332 14.9466 13.332C13.9744 13.332 13.332 14.0041 13.332 14.8852C13.332 15.748 13.9484 16.4383 14.9119 16.4383H14.9293C15.9275 16.4383 16.5525 15.748 16.5438 14.8852ZM26.6654 21.5064C26.6654 18.7453 25.2591 17.4556 23.3754 17.4556C21.8303 17.4556 21.1532 18.3547 20.7799 18.9724H20.7973V17.6645H17.9414C17.9414 17.6645 17.9761 18.5091 17.9414 26.6654H20.7973V21.6427C20.7973 21.3702 20.8234 21.1068 20.8928 20.907C21.1011 20.3711 21.5699 19.817 22.3598 19.817C23.3928 19.817 23.8095 20.6436 23.8095 21.8516V26.6654H26.6654V21.5064Z" fill="#053F33"/>
</svg>
