<svg width="40" height="40" viewBox="0 0 40 40" fill="none" xmlns="http://www.w3.org/2000/svg">
    <rect x="0.5" y="0.5" width="39" height="39" stroke="#053F33"/>
    <path d="M27.3346 15.9901C26.7948 16.2145 26.2156 16.3666 25.607 16.4345C26.2284 16.0855 26.7041 15.5319 26.9295 14.8743C26.3466 15.1975 25.7033 15.4322 25.0177 15.5594C24.4687 15.0101 23.6879 14.668 22.8218 14.668C21.1602 14.668 19.8129 15.9317 19.8129 17.4893C19.8129 17.7103 19.8395 17.926 19.8908 18.1324C17.3906 18.0146 15.1736 16.891 13.6898 15.1837C13.4305 15.5998 13.2829 16.0846 13.2829 16.6022C13.2829 17.5813 13.8145 18.4453 14.621 18.9507C14.1279 18.9353 13.6642 18.808 13.2582 18.5966V18.6318C13.2582 19.9986 14.2957 21.1394 15.6713 21.399C15.4193 21.4626 15.1535 21.4979 14.8785 21.4979C14.6843 21.4979 14.4964 21.4798 14.3121 21.4454C14.6952 22.5673 15.806 23.3831 17.1221 23.4055C16.0929 24.162 14.7951 24.6115 13.3856 24.6115C13.1427 24.6115 12.9035 24.5978 12.668 24.5729C13.9996 25.3749 15.5806 25.8426 17.2798 25.8426C22.8145 25.8426 25.8399 21.5426 25.8399 17.8134L25.8298 17.4481C26.4209 17.0526 26.9323 16.5558 27.3346 15.9901Z" fill="#053F33"/>
</svg>
